PathFileType	4	(X/Y/Z)	C:\Users\Basilio\Documents\Thesis Gigler\squatting_fais\c3dfiles\038\SLS_back_pre5\markers_experimental.trc
DataRate	CameraRate	NumFrames	NumMarkers	Units	OrigDataRate	OrigDataStartFrame	OrigNumFrames
200.000000	200.000000	4	63	mm	200.000000	1046	1674
Frame#	Time	FHD			LBHD			RBHD			C7			T10			CLAV			LSHO			LUUPA			LMUPA			LDUPA			LLEP			LMEP			LRAD			LUL			LRFIN			RSHO			RUPA1			RMUPA			RDUPA			RLEP			RMEP			RRAD			RUL			RUFIN			LASI			RASI			USACR			LSACR			RSACR			LTHI1			LTHI2			LTHI3			LTHI4			LLFC			LMFC			LTIB1			LTIB2			LTIB3			LTIB4			LLMAL			LMMAL			LHEE			LMT1			LMT2			LMT5			RTHI			RTHI2			RTHI3			RTHI4			RLFC			RMFC			RTIB1			RTIB2			RTIB3			RTIB4			RLMAL			RMMAL			RHEE			RMT1			RMT2			RMT5			*61			*62			
		X1	Y1	Z1	X2	Y2	Z2	X3	Y3	Z3	X4	Y4	Z4	X5	Y5	Z5	X6	Y6	Z6	X7	Y7	Z7	X8	Y8	Z8	X9	Y9	Z9	X10	Y10	Z10	X11	Y11	Z11	X12	Y12	Z12	X13	Y13	Z13	X14	Y14	Z14	X15	Y15	Z15	X16	Y16	Z16	X17	Y17	Z17	X18	Y18	Z18	X19	Y19	Z19	X20	Y20	Z20	X21	Y21	Z21	X22	Y22	Z22	X23	Y23	Z23	X24	Y24	Z24	X25	Y25	Z25	X26	Y26	Z26	X27	Y27	Z27	X28	Y28	Z28	X29	Y29	Z29	X30	Y30	Z30	X31	Y31	Z31	X32	Y32	Z32	X33	Y33	Z33	X34	Y34	Z34	X35	Y35	Z35	X36	Y36	Z36	X37	Y37	Z37	X38	Y38	Z38	X39	Y39	Z39	X40	Y40	Z40	X41	Y41	Z41	X42	Y42	Z42	X43	Y43	Z43	X44	Y44	Z44	X45	Y45	Z45	X46	Y46	Z46	X47	Y47	Z47	X48	Y48	Z48	X49	Y49	Z49	X50	Y50	Z50	X51	Y51	Z51	X52	Y52	Z52	X53	Y53	Z53	X54	Y54	Z54	X55	Y55	Z55	X56	Y56	Z56	X57	Y57	Z57	X58	Y58	Z58	X59	Y59	Z59	X60	Y60	Z60	X61	Y61	Z61	X62	Y62	Z62	X63	Y63	Z63	

1047	5.23	-149.5848541259766	1529.223388671875	-1069.898803710938	-298.7412719726563	1466.928466796875	-1133.36083984375	-291.0147705078126	1450.185424804688	-989.1723632812502	-331.5299072265626	1300.843505859375	-1063.9306640625	-389.8374938964845	1036.09423828125	-1037.752563476563	-189.3656158447266	1266.437622070313	-1074.7734375	-250.8282775878907	1318.058349609375	-1209.044799804688	-85.92420959472658	1271.509643554688	-1338.011108398438	-60.24034118652345	1304.830322265625	-1309.424560546875	-17.29926490783692	1281.84912109375	-1343.676635742188	45.31336975097657	1287.967895507813	-1343.068359375	58.75216674804689	1214.498413085938	-1320.869384765625	nan	nan	nan	335.8163146972657	1318.14501953125	-1281.989990234375	388.1372985839845	1342.12255859375	-1186.401123046875	-230.4934692382813	1310.761840820313	-937.823913574219	-71.02811431884767	1303.46240234375	-827.2097778320315	-38.30647659301759	1312.617065429688	-862.1472167968752	-2.428674221038819	1302.91552734375	-814.0456542968752	70.97737884521486	1304.956787109375	-807.769958496094	82.01477050781251	1227.769165039063	-824.2108154296877	347.1065063476563	1321.832153320313	-889.587341308594	356.4833679199219	1336.188110351563	-821.0965576171877	421.7329101562501	1364.90283203125	-894.7277832031252	-264.4191894531251	826.6390380859377	-1123.913940429688	-293.1991882324219	839.8829345703127	-881.0180664062502	-439.5372314453126	895.4449462890627	-1021.035766601563	-454.0216674804689	865.657897949219	-1050.956420898438	-459.4087829589845	867.5901489257815	-993.673767089844	-159.0915679931641	572.0648803710939	-1177.698120117188	-87.28509521484376	525.3438720703126	-1169.647583007813	-55.71421813964845	552.7576293945314	-1141.57373046875	-84.45812988281251	466.4013977050782	-1152.801879882813	-65.33955383300783	418.1683959960939	-1135.342407226563	-63.30275344848634	426.236053466797	-1019.772216796875	-127.5539474487305	264.0737304687501	-1034.10009765625	-188.4712219238282	243.7794036865235	-1097.947631835938	-162.939208984375	226.5877075195313	-1063.1103515625	-221.6848754882813	178.4549407958985	-1024.435302734375	-370.0285339355469	116.5951919555664	-1043.030029296875	-328.0597229003907	131.3077239990235	-967.1154785156252	-432.3756408691407	102.3902969360352	-981.6773681640627	-231.8023681640626	45.95933532714844	-974.8801269531252	-224.8407897949219	43.57432556152344	-1025.466918945313	-270.5336303710938	34.37008666992188	-1071.969970703125	-324.6159973144532	579.4147949218751	-789.913513183594	-281.6529846191407	530.7268676757814	-770.8106689453127	-248.5736389160157	535.0739746093751	-772.3273925781252	-298.7128906250001	445.2038879394532	-775.429870605469	-280.3566284179688	353.0453186035157	-780.7202148437502	-264.4524536132813	336.9678955078126	-897.870300292969	-412.8713378906251	267.4724426269532	-838.2475585937502	-508.9153442382814	334.6268920898438	-831.4722900390627	-497.3845825195314	288.9259033203126	-835.6151123046877	-536.0854492187501	270.2016601562501	-877.136169433594	-663.2808227539064	318.6896362304688	-884.4849853515627	-634.1472167968751	285.5271911621094	-956.4907226562502	-669.4006347656251	376.2446289062501	-958.6573486328127	-725.0969848632814	167.183837890625	-963.4748535156252	-740.5076293945314	170.1058502197266	-918.628601074219	-770.3396606445315	216.7107849121094	-887.202575683594	nan	nan	nan	nan	nan	nan	
1048	5.235	-149.6863708496094	1529.531005859375	-1070.001953125	-298.8432312011719	1467.327758789063	-1133.398803710938	-291.0177917480469	1450.628784179688	-989.2198486328127	-331.5684509277344	1301.384155273438	-1064.074829101563	-389.8265380859376	1036.571655273438	-1037.838989257813	-189.582260131836	1266.8359375	-1074.835327148438	-250.8484649658204	1318.469604492188	-1209.109008789063	-85.98645782470705	1271.892944335938	-1338.123779296875	-60.31121063232423	1305.195678710938	-1309.547241210938	-17.41876411437989	1282.216552734375	-1343.749633789063	45.29538345336915	1288.329467773438	-1343.176391601563	58.69867324829103	1214.87890625	-1321.012451171875	nan	nan	nan	335.6847839355469	1318.418823242188	-1281.990112304688	388.0276184082032	1342.390625	-1186.432861328125	-230.6078491210938	1311.130249023438	-937.8181152343752	-71.01905059814455	1303.469848632813	-827.3194580078127	-38.39449691772462	1312.981201171875	-862.143005371094	-2.422333002090455	1303.1591796875	-814.0910644531252	70.95225524902345	1305.195068359375	-807.8276367187502	81.95725250244142	1228.109252929688	-824.3203735351565	347.0727233886719	1322.05078125	-889.5506591796877	356.4585266113282	1336.338012695313	-821.2063598632815	421.7688598632814	1365.374267578125	-894.684753417969	-264.5038757324219	827.0428466796877	-1124.071655273438	-292.9955444335938	840.401550292969	-881.1706542968752	-439.6436462402345	896.0927734375002	-1020.900085449219	-454.0921020507814	866.098815917969	-1050.86865234375	-459.443817138672	868.0040283203127	-993.6422119140627	-159.4161376953125	572.3981933593751	-1177.965454101563	-87.63871002197267	525.5155639648439	-1169.873291015625	-56.02415847778322	553.0853881835939	-1141.952880859375	-84.83329010009767	466.7782592773439	-1153.132446289063	-65.70323181152345	418.3645324707032	-1135.669799804688	-63.5427932739258	426.5209960937501	-1019.935729980469	-127.7273178100586	264.3306579589844	-1034.357421875	-188.7224578857422	243.8903961181641	-1098.12939453125	-162.9631958007813	226.6682891845704	-1063.1962890625	-221.7284851074219	178.5706787109375	-1024.57470703125	-369.9899597167969	116.6487808227539	-1042.993286132813	-328.0248107910157	131.2736358642578	-967.0905761718752	-432.345428466797	102.4408874511719	-981.736267089844	-231.8126220703126	46.03780746459962	-974.9060058593752	-224.8406372070313	43.59449768066407	-1025.45947265625	-270.8770141601563	34.64813613891602	-1072.03369140625	-324.7796630859376	579.9184570312501	-789.903991699219	-281.9040832519532	531.2319335937501	-770.6916503906252	-248.7610168457032	535.3937377929689	-772.2938232421877	-298.9617004394532	445.6375427246095	-775.3421630859377	-280.5564575195313	353.4954528808594	-780.589294433594	-264.6697998046876	337.2872314453126	-897.8315429687502	-413.0038146972657	267.8527526855469	-838.422790527344	-509.2205505371095	335.3777465820313	-831.4851684570315	-497.6980590820314	289.3441162109376	-835.496276855469	-536.2907714843751	270.4823608398438	-877.185241699219	-663.4652099609376	319.0389099121094	-884.5264892578127	-634.3073730468751	286.0504760742188	-956.4605102539065	-669.5346069335939	376.6278991699219	-958.7213134765627	-725.3705444335939	167.5660858154297	-963.5374145507815	-740.5830688476564	170.4100646972657	-918.5587158203127	-770.5936279296877	217.2704315185547	-887.2677001953127	nan	nan	nan	nan	nan	nan	
1049	5.24	-149.9401550292969	1529.502319335938	-1069.825805664063	-298.9785461425782	1467.675903320313	-1133.48486328125	-291.0845642089844	1451.0224609375	-989.1922607421877	-331.6130676269532	1301.858642578125	-1064.1591796875	-389.8741149902345	1036.957397460938	-1037.812133789063	-189.479965209961	1267.28369140625	-1074.900146484375	-250.9363555908204	1318.835327148438	-1209.16357421875	-86.07727050781251	1272.160278320313	-1338.2021484375	-60.40293502807619	1305.6318359375	-1309.679443359375	-17.57379341125489	1282.544921875	-1343.810424804688	45.23273849487305	1288.511596679688	-1343.245971679688	58.61459350585939	1215.175659179688	-1321.183471679688	nan	nan	nan	335.6336059570313	1318.690307617188	-1282.032470703125	387.9898986816407	1342.661254882813	-1186.519165039063	-230.8561706542969	1311.413696289063	-937.6499633789065	-71.05427551269533	1303.81396484375	-827.275573730469	-38.39831161499024	1313.363647460938	-862.1455688476565	-2.49412488937378	1303.486206054688	-814.0444946289065	70.91716766357423	1305.445068359375	-807.9029541015627	81.85832977294923	1228.334350585938	-824.4796142578127	346.9863586425782	1322.217407226563	-889.5708007812502	356.4944152832032	1336.565795898438	-821.2502441406252	421.7203979492189	1365.30419921875	-894.7144775390627	-264.4560241699219	827.409362792969	-1124.19580078125	-292.9132690429688	840.8018798828127	-881.2329711914065	-439.5700988769532	896.5249633789065	-1020.838806152344	-453.2498168945314	866.629577636719	-1050.365234375	-459.5215759277345	868.3584594726565	-993.6939086914065	-159.6945495605469	572.7478027343751	-1178.1474609375	-87.97006225585939	525.7911376953126	-1170.17138671875	-56.34893035888673	553.3743286132814	-1142.242919921875	-85.16015625000001	467.072967529297	-1153.524658203125	-65.98048400878908	418.6268920898439	-1136.1064453125	-63.81804656982423	426.6943969726564	-1020.178649902344	-127.8735656738282	264.5703430175782	-1034.558227539063	-188.9093933105469	244.0385131835938	-1098.287841796875	-162.9188537597657	226.3917083740235	-1063.116943359375	-221.7454528808594	178.6338195800782	-1024.65771484375	-369.9722595214844	116.5742492675782	-1042.989624023438	-328.0058288574219	131.3498840332032	-967.1486816406252	-432.4941711425782	102.6038360595703	-981.0779418945315	-231.7912750244141	45.95917892456055	-974.933044433594	-224.8074645996094	43.59780502319337	-1025.401977539063	-270.8502807617188	34.65776443481446	-1072.040161132813	-324.8992004394532	580.2883300781251	-789.8779907226565	-282.0115966796876	531.5612182617189	-770.5601806640627	-248.9591522216797	535.6501464843751	-772.3132324218752	-299.1686706542969	446.1387329101564	-775.3139648437502	-280.7190246582032	353.7829589843751	-780.6445922851565	-264.8586425781251	337.6882324218751	-897.7965087890627	-413.2281188964845	268.2652282714844	-838.2788696289065	-509.6492614746095	335.3540344238282	-831.5317382812502	-497.9206848144532	289.9257812500001	-835.537292480469	-536.5097045898439	271.0394592285157	-876.6316528320315	-663.6334228515626	319.5189819335938	-884.5459594726565	-634.4946899414064	286.5350341796876	-956.4197387695315	-669.7045288085939	377.0714416503907	-958.7741699218752	-725.7852783203126	167.9715728759766	-963.4846801757815	-741.2801513671876	170.4626922607422	-918.5595703125002	-770.805114746094	217.7965240478516	-887.4309082031252	nan	nan	nan	nan	nan	nan	
1050	5.245	-150.0472106933594	1530.07861328125	-1069.911254882813	-299.0359802246094	1468.165649414063	-1133.510009765625	-291.1802673339844	1451.318237304688	-989.2054443359377	-331.6711120605469	1302.2763671875	-1064.163330078125	-389.9430541992189	1037.396118164063	-1037.878784179688	-189.6710815429688	1267.747436523438	-1074.958618164063	-251.0980529785157	1319.292724609375	-1209.19384765625	-86.17458343505861	1272.585327148438	-1338.28759765625	-60.77816772460939	1306.23779296875	-1309.8193359375	-17.77276420593262	1282.885131835938	-1343.886474609375	45.13669967651368	1288.83056640625	-1343.333862304688	58.46520233154298	1215.634887695313	-1321.331787109375	nan	nan	nan	335.5267333984376	1318.999633789063	-1282.098754882813	387.6180419921876	1343.247314453125	-1186.571899414063	-230.875228881836	1311.80908203125	-937.742126464844	-71.18545532226564	1304.166870117188	-827.3023071289065	-38.37224960327149	1313.83984375	-862.137878417969	-2.447274446487427	1303.775512695313	-814.0618896484377	70.79349517822267	1305.765014648438	-808.0202636718752	81.81351470947267	1228.589721679688	-824.5101318359377	347.0879211425782	1322.416015625	-889.616638183594	356.5251770019532	1336.747924804688	-821.3317871093752	421.8783264160157	1365.857788085938	-895.0543212890627	-264.4881896972657	827.903747558594	-1124.321899414063	-292.9042053222657	841.2628173828127	-881.3255004882815	-439.4734191894532	896.825622558594	-1020.758666992188	-453.2315368652345	867.035095214844	-1050.341796875	-459.381317138672	868.961853027344	-993.4957275390627	-160.1023712158203	573.1411132812501	-1178.287475585938	-88.36565399169923	526.0382080078126	-1170.41015625	-56.54989242553712	553.7479248046876	-1142.569580078125	-85.4346389770508	467.2317199707032	-1153.794921875	-66.16269683837892	418.8815307617189	-1136.411254882813	-64.11852264404298	426.8972778320314	-1020.507446289063	-127.9806594848633	264.6555175781251	-1034.730346679688	-189.1443634033203	244.2085876464844	-1098.429443359375	-162.9900817871094	226.5640563964844	-1063.261108398438	-221.7496032714844	178.7319641113282	-1024.826049804688	-369.9774780273438	116.5719757080078	-1042.997924804688	-327.9763488769532	131.3329620361328	-967.1080322265627	-432.3795471191407	102.4270629882813	-981.6854248046877	-231.8256225585938	46.0704689025879	-974.9153442382815	-224.8414611816407	43.55865859985352	-1025.498413085938	-270.8352355957032	34.6478500366211	-1072.059204101563	-324.9759521484376	580.6943969726564	-789.7977294921877	-282.2341003417969	532.1014404296876	-770.4141845703127	-249.1828155517579	536.0595703125001	-772.156677246094	-299.3824157714844	446.4739685058595	-775.2645263671877	-280.8700561523438	354.1640930175782	-780.5889892578127	-264.6345825195313	338.5076599121094	-897.5076904296877	-413.4181213378907	268.8492431640626	-838.2799072265627	-509.7931518554689	335.8053894042969	-831.4156494140627	-498.0375061035157	290.3150329589844	-835.6077270507815	-536.6839599609376	271.3948669433594	-876.803649902344	-663.8128662109376	319.9510498046876	-884.5622558593752	-634.6484985351564	287.0253906250001	-956.4295654296877	-669.9215698242189	377.5234069824219	-958.7676391601565	-726.1126708984376	168.5220489501953	-963.295837402344	-741.9937133789064	170.850341796875	-918.625915527344	-771.0193481445315	218.2200469970704	-887.4716796875002	nan	nan	nan	nan	nan	nan	
